<?xml version='1.0' encoding='UTF-8'?>
<svg width="98mm" height="98mm" version="1.1" viewBox="0 0 98 98" xmlns="http://www.w3.org/2000/svg"><path d="M8,8H10V10H8zM10,8H12V10H10zM12,8H14V10H12zM14,8H16V10H14zM16,8H18V10H16zM18,8H20V10H18zM20,8H22V10H20zM34,8H36V10H34zM40,8H42V10H40zM42,8H44V10H42zM46,8H48V10H46zM48,8H50V10H48zM52,8H54V10H52zM54,8H56V10H54zM60,8H62V10H60zM62,8H64V10H62zM64,8H66V10H64zM66,8H68V10H66zM76,8H78V10H76zM78,8H80V10H78zM80,8H82V10H80zM82,8H84V10H82zM84,8H86V10H84zM86,8H88V10H86zM88,8H90V10H88zM8,10H10V12H8zM20,10H22V12H20zM24,10H26V12H24zM30,10H32V12H30zM32,10H34V12H32zM36,10H38V12H36zM40,10H42V12H40zM42,10H44V12H42zM46,10H48V12H46zM48,10H50V12H48zM50,10H52V12H50zM52,10H54V12H52zM64,10H66V12H64zM66,10H68V12H66zM70,10H72V12H70zM72,10H74V12H72zM76,10H78V12H76zM88,10H90V12H88zM8,12H10V14H8zM12,12H14V14H12zM14,12H16V14H14zM16,12H18V14H16zM20,12H22V14H20zM26,12H28V14H26zM30,12H32V14H30zM32,12H34V14H32zM34,12H36V14H34zM36,12H38V14H36zM42,12H44V14H42zM58,12H60V14H58zM66,12H68V14H66zM72,12H74V14H72zM76,12H78V14H76zM80,12H82V14H80zM82,12H84V14H82zM84,12H86V14H84zM88,12H90V14H88zM8,14H10V16H8zM12,14H14V16H12zM14,14H16V16H14zM16,14H18V16H16zM20,14H22V16H20zM32,14H34V16H32zM34,14H36V16H34zM36,14H38V16H36zM38,14H40V16H38zM40,14H42V16H40zM42,14H44V16H42zM48,14H50V16H48zM52,14H54V16H52zM60,14H62V16H60zM62,14H64V16H62zM64,14H66V16H64zM68,14H70V16H68zM70,14H72V16H70zM76,14H78V16H76zM80,14H82V16H80zM82,14H84V16H82zM84,14H86V16H84zM88,14H90V16H88zM8,16H10V18H8zM12,16H14V18H12zM14,16H16V18H14zM16,16H18V18H16zM20,16H22V18H20zM26,16H28V18H26zM30,16H32V18H30zM34,16H36V18H34zM36,16H38V18H36zM38,16H40V18H38zM46,16H48V18H46zM48,16H50V18H48zM50,16H52V18H50zM52,16H54V18H52zM54,16H56V18H54zM58,16H60V18H58zM60,16H62V18H60zM62,16H64V18H62zM64,16H66V18H64zM68,16H70V18H68zM76,16H78V18H76zM80,16H82V18H80zM82,16H84V18H82zM84,16H86V18H84zM88,16H90V18H88zM8,18H10V20H8zM20,18H22V20H20zM24,18H26V20H24zM26,18H28V20H26zM28,18H30V20H28zM30,18H32V20H30zM32,18H34V20H32zM34,18H36V20H34zM36,18H38V20H36zM38,18H40V20H38zM40,18H42V20H40zM44,18H46V20H44zM46,18H48V20H46zM50,18H52V20H50zM54,18H56V20H54zM56,18H58V20H56zM58,18H60V20H58zM60,18H62V20H60zM64,18H66V20H64zM66,18H68V20H66zM70,18H72V20H70zM72,18H74V20H72zM76,18H78V20H76zM88,18H90V20H88zM8,20H10V22H8zM10,20H12V22H10zM12,20H14V22H12zM14,20H16V22H14zM16,20H18V22H16zM18,20H20V22H18zM20,20H22V22H20zM24,20H26V22H24zM28,20H30V22H28zM32,20H34V22H32zM36,20H38V22H36zM40,20H42V22H40zM44,20H46V22H44zM48,20H50V22H48zM52,20H54V22H52zM56,20H58V22H56zM60,20H62V22H60zM64,20H66V22H64zM68,20H70V22H68zM72,20H74V22H72zM76,20H78V22H76zM78,20H80V22H78zM80,20H82V22H80zM82,20H84V22H82zM84,20H86V22H84zM86,20H88V22H86zM88,20H90V22H88zM24,22H26V24H24zM26,22H28V24H26zM32,22H34V24H32zM38,22H40V24H38zM46,22H48V24H46zM48,22H50V24H48zM50,22H52V24H50zM54,22H56V24H54zM56,22H58V24H56zM64,22H66V24H64zM66,22H68V24H66zM68,22H70V24H68zM72,22H74V24H72zM16,24H18V26H16zM18,24H20V26H18zM20,24H22V26H20zM22,24H24V26H22zM26,24H28V26H26zM28,24H30V26H28zM30,24H32V26H30zM32,24H34V26H32zM36,24H38V26H36zM48,24H50V26H48zM50,24H52V26H50zM54,24H56V26H54zM58,24H60V26H58zM60,24H62V26H60zM66,24H68V26H66zM70,24H72V26H70zM72,24H74V26H72zM76,24H78V26H76zM78,24H80V26H78zM86,24H88V26H86zM8,26H10V28H8zM14,26H16V28H14zM18,26H20V28H18zM30,26H32V28H30zM32,26H34V28H32zM34,26H36V28H34zM36,26H38V28H36zM38,26H40V28H38zM42,26H44V28H42zM44,26H46V28H44zM52,26H54V28H52zM54,26H56V28H54zM56,26H58V28H56zM60,26H62V28H60zM62,26H64V28H62zM64,26H66V28H64zM66,26H68V28H66zM68,26H70V28H68zM76,26H78V28H76zM80,26H82V28H80zM82,26H84V28H82zM86,26H88V28H86zM88,26H90V28H88zM10,28H12V30H10zM14,28H16V30H14zM16,28H18V30H16zM20,28H22V30H20zM22,28H24V30H22zM24,28H26V30H24zM30,28H32V30H30zM36,28H38V30H36zM42,28H44V30H42zM44,28H46V30H44zM46,28H48V30H46zM48,28H50V30H48zM52,28H54V30H52zM56,28H58V30H56zM58,28H60V30H58zM60,28H62V30H60zM62,28H64V30H62zM66,28H68V30H66zM72,28H74V30H72zM78,28H80V30H78zM80,28H82V30H80zM88,28H90V30H88zM8,30H10V32H8zM10,30H12V32H10zM12,30H14V32H12zM16,30H18V32H16zM24,30H26V32H24zM28,30H30V32H28zM30,30H32V32H30zM38,30H40V32H38zM48,30H50V32H48zM50,30H52V32H50zM52,30H54V32H52zM62,30H64V32H62zM66,30H68V32H66zM70,30H72V32H70zM72,30H74V32H72zM82,30H84V32H82zM86,30H88V32H86zM12,32H14V34H12zM18,32H20V34H18zM20,32H22V34H20zM22,32H24V34H22zM24,32H26V34H24zM28,32H30V34H28zM30,32H32V34H30zM32,32H34V34H32zM34,32H36V34H34zM36,32H38V34H36zM38,32H40V34H38zM40,32H42V34H40zM48,32H50V34H48zM52,32H54V34H52zM54,32H56V34H54zM56,32H58V34H56zM66,32H68V34H66zM72,32H74V34H72zM74,32H76V34H74zM86,32H88V34H86zM88,32H90V34H88zM8,34H10V36H8zM16,34H18V36H16zM22,34H24V36H22zM24,34H26V36H24zM26,34H28V36H26zM30,34H32V36H30zM32,34H34V36H32zM36,34H38V36H36zM40,34H42V36H40zM42,34H44V36H42zM48,34H50V36H48zM56,34H58V36H56zM60,34H62V36H60zM74,34H76V36H74zM76,34H78V36H76zM78,34H80V36H78zM80,34H82V36H80zM82,34H84V36H82zM84,34H86V36H84zM88,34H90V36H88zM10,36H12V38H10zM12,36H14V38H12zM16,36H18V38H16zM20,36H22V38H20zM22,36H24V38H22zM32,36H34V38H32zM36,36H38V38H36zM40,36H42V38H40zM42,36H44V38H42zM44,36H46V38H44zM46,36H48V38H46zM52,36H54V38H52zM54,36H56V38H54zM56,36H58V38H56zM58,36H60V38H58zM62,36H64V38H62zM66,36H68V38H66zM68,36H70V38H68zM74,36H76V38H74zM76,36H78V38H76zM80,36H82V38H80zM82,36H84V38H82zM84,36H86V38H84zM88,36H90V38H88zM10,38H12V40H10zM16,38H18V40H16zM18,38H20V40H18zM22,38H24V40H22zM28,38H30V40H28zM34,38H36V40H34zM42,38H44V40H42zM44,38H46V40H44zM46,38H48V40H46zM48,38H50V40H48zM54,38H56V40H54zM58,38H60V40H58zM60,38H62V40H60zM62,38H64V40H62zM66,38H68V40H66zM70,38H72V40H70zM80,38H82V40H80zM82,38H84V40H82zM10,40H12V42H10zM12,40H14V42H12zM20,40H22V42H20zM22,40H24V42H22zM34,40H36V42H34zM36,40H38V42H36zM42,40H44V42H42zM44,40H46V42H44zM46,40H48V42H46zM52,40H54V42H52zM54,40H56V42H54zM56,40H58V42H56zM58,40H60V42H58zM66,40H68V42H66zM70,40H72V42H70zM72,40H74V42H72zM78,40H80V42H78zM82,40H84V42H82zM86,40H88V42H86zM88,40H90V42H88zM10,42H12V44H10zM24,42H26V44H24zM36,42H38V44H36zM38,42H40V44H38zM40,42H42V44H40zM52,42H54V44H52zM54,42H56V44H54zM60,42H62V44H60zM62,42H64V44H62zM64,42H66V44H64zM68,42H70V44H68zM74,42H76V44H74zM76,42H78V44H76zM78,42H80V44H78zM80,42H82V44H80zM84,42H86V44H84zM88,42H90V44H88zM12,44H14V46H12zM14,44H16V46H14zM16,44H18V46H16zM20,44H22V46H20zM22,44H24V46H22zM28,44H30V46H28zM34,44H36V46H34zM38,44H40V46H38zM40,44H42V46H40zM48,44H50V46H48zM58,44H60V46H58zM62,44H64V46H62zM66,44H68V46H66zM72,44H74V46H72zM74,44H76V46H74zM78,44H80V46H78zM88,44H90V46H88zM8,46H10V48H8zM10,46H12V48H10zM12,46H14V48H12zM14,46H16V48H14zM18,46H20V48H18zM22,46H24V48H22zM24,46H26V48H24zM26,46H28V48H26zM30,46H32V48H30zM32,46H34V48H32zM36,46H38V48H36zM42,46H44V48H42zM48,46H50V48H48zM52,46H54V48H52zM54,46H56V48H54zM62,46H64V48H62zM64,46H66V48H64zM66,46H68V48H66zM68,46H70V48H68zM72,46H74V48H72zM76,46H78V48H76zM78,46H80V48H78zM82,46H84V48H82zM86,46H88V48H86zM8,48H10V50H8zM12,48H14V50H12zM14,48H16V50H14zM16,48H18V50H16zM20,48H22V50H20zM22,48H24V50H22zM24,48H26V50H24zM42,48H44V50H42zM48,48H50V50H48zM52,48H54V50H52zM58,48H60V50H58zM60,48H62V50H60zM64,48H66V50H64zM66,48H68V50H66zM70,48H72V50H70zM74,48H76V50H74zM82,48H84V50H82zM86,48H88V50H86zM88,48H90V50H88zM12,50H14V52H12zM14,50H16V52H14zM16,50H18V52H16zM18,50H20V52H18zM22,50H24V52H22zM26,50H28V52H26zM30,50H32V52H30zM32,50H34V52H32zM34,50H36V52H34zM36,50H38V52H36zM38,50H40V52H38zM40,50H42V52H40zM44,50H46V52H44zM50,50H52V52H50zM54,50H56V52H54zM58,50H60V52H58zM60,50H62V52H60zM62,50H64V52H62zM64,50H66V52H64zM66,50H68V52H66zM68,50H70V52H68zM76,50H78V52H76zM78,50H80V52H78zM80,50H82V52H80zM84,50H86V52H84zM88,50H90V52H88zM10,52H12V54H10zM12,52H14V54H12zM16,52H18V54H16zM18,52H20V54H18zM20,52H22V54H20zM22,52H24V54H22zM26,52H28V54H26zM32,52H34V54H32zM36,52H38V54H36zM38,52H40V54H38zM46,52H48V54H46zM48,52H50V54H48zM50,52H52V54H50zM52,52H54V54H52zM54,52H56V54H54zM60,52H62V54H60zM62,52H64V54H62zM66,52H68V54H66zM72,52H74V54H72zM80,52H82V54H80zM88,52H90V54H88zM8,54H10V56H8zM10,54H12V56H10zM12,54H14V56H12zM14,54H16V56H14zM18,54H20V56H18zM26,54H28V56H26zM28,54H30V56H28zM30,54H32V56H30zM44,54H46V56H44zM52,54H54V56H52zM56,54H58V56H56zM58,54H60V56H58zM60,54H62V56H60zM62,54H64V56H62zM66,54H68V56H66zM68,54H70V56H68zM76,54H78V56H76zM88,54H90V56H88zM10,56H12V58H10zM20,56H22V58H20zM22,56H24V58H22zM26,56H28V58H26zM34,56H36V58H34zM42,56H44V58H42zM44,56H46V58H44zM52,56H54V58H52zM58,56H60V58H58zM62,56H64V58H62zM64,56H66V58H64zM66,56H68V58H66zM70,56H72V58H70zM72,56H74V58H72zM74,56H76V58H74zM78,56H80V58H78zM82,56H84V58H82zM88,56H90V58H88zM8,58H10V60H8zM10,58H12V60H10zM16,58H18V60H16zM22,58H24V60H22zM28,58H30V60H28zM30,58H32V60H30zM32,58H34V60H32zM36,58H38V60H36zM38,58H40V60H38zM44,58H46V60H44zM46,58H48V60H46zM48,58H50V60H48zM56,58H58V60H56zM58,58H60V60H58zM60,58H62V60H60zM62,58H64V60H62zM64,58H66V60H64zM72,58H74V60H72zM76,58H78V60H76zM80,58H82V60H80zM84,58H86V60H84zM88,58H90V60H88zM8,60H10V62H8zM14,60H16V62H14zM16,60H18V62H16zM20,60H22V62H20zM24,60H26V62H24zM28,60H30V62H28zM34,60H36V62H34zM36,60H38V62H36zM38,60H40V62H38zM40,60H42V62H40zM44,60H46V62H44zM46,60H48V62H46zM50,60H52V62H50zM56,60H58V62H56zM60,60H62V62H60zM62,60H64V62H62zM64,60H66V62H64zM66,60H68V62H66zM68,60H70V62H68zM72,60H74V62H72zM76,60H78V62H76zM78,60H80V62H78zM80,60H82V62H80zM88,60H90V62H88zM10,62H12V64H10zM14,62H16V64H14zM16,62H18V64H16zM22,62H24V64H22zM24,62H26V64H24zM28,62H30V64H28zM32,62H34V64H32zM34,62H36V64H34zM44,62H46V64H44zM48,62H50V64H48zM50,62H52V64H50zM52,62H54V64H52zM60,62H62V64H60zM62,62H64V64H62zM64,62H66V64H64zM66,62H68V64H66zM68,62H70V64H68zM70,62H72V64H70zM72,62H74V64H72zM74,62H76V64H74zM78,62H80V64H78zM82,62H84V64H82zM88,62H90V64H88zM10,64H12V66H10zM12,64H14V66H12zM20,64H22V66H20zM24,64H26V66H24zM28,64H30V66H28zM30,64H32V66H30zM38,64H40V66H38zM42,64H44V66H42zM44,64H46V66H44zM48,64H50V66H48zM52,64H54V66H52zM54,64H56V66H54zM60,64H62V66H60zM62,64H64V66H62zM66,64H68V66H66zM74,64H76V66H74zM86,64H88V66H86zM8,66H10V68H8zM10,66H12V68H10zM14,66H16V68H14zM16,66H18V68H16zM22,66H24V68H22zM24,66H26V68H24zM26,66H28V68H26zM28,66H30V68H28zM32,66H34V68H32zM38,66H40V68H38zM42,66H44V68H42zM48,66H50V68H48zM50,66H52V68H50zM58,66H60V68H58zM60,66H62V68H60zM62,66H64V68H62zM64,66H66V68H64zM66,66H68V68H66zM76,66H78V68H76zM80,66H82V68H80zM88,66H90V68H88zM12,68H14V70H12zM16,68H18V70H16zM20,68H22V70H20zM22,68H24V70H22zM24,68H26V70H24zM28,68H30V70H28zM30,68H32V70H30zM32,68H34V70H32zM34,68H36V70H34zM44,68H46V70H44zM46,68H48V70H46zM56,68H58V70H56zM58,68H60V70H58zM60,68H62V70H60zM62,68H64V70H62zM66,68H68V70H66zM72,68H74V70H72zM74,68H76V70H74zM82,68H84V70H82zM84,68H86V70H84zM86,68H88V70H86zM88,68H90V70H88zM14,70H16V72H14zM16,70H18V72H16zM22,70H24V72H22zM24,70H26V72H24zM30,70H32V72H30zM32,70H34V72H32zM38,70H40V72H38zM40,70H42V72H40zM50,70H52V72H50zM58,70H60V72H58zM64,70H66V72H64zM66,70H68V72H66zM68,70H70V72H68zM72,70H74V72H72zM74,70H76V72H74zM80,70H82V72H80zM82,70H84V72H82zM86,70H88V72H86zM8,72H10V74H8zM10,72H12V74H10zM14,72H16V74H14zM20,72H22V74H20zM24,72H26V74H24zM30,72H32V74H30zM40,72H42V74H40zM44,72H46V74H44zM48,72H50V74H48zM50,72H52V74H50zM52,72H54V74H52zM66,72H68V74H66zM68,72H70V74H68zM70,72H72V74H70zM72,72H74V74H72zM74,72H76V74H74zM76,72H78V74H76zM78,72H80V74H78zM80,72H82V74H80zM82,72H84V74H82zM86,72H88V74H86zM24,74H26V76H24zM48,74H50V76H48zM50,74H52V76H50zM52,74H54V76H52zM56,74H58V76H56zM58,74H60V76H58zM60,74H62V76H60zM62,74H64V76H62zM64,74H66V76H64zM66,74H68V76H66zM68,74H70V76H68zM72,74H74V76H72zM80,74H82V76H80zM84,74H86V76H84zM88,74H90V76H88zM8,76H10V78H8zM10,76H12V78H10zM12,76H14V78H12zM14,76H16V78H14zM16,76H18V78H16zM18,76H20V78H18zM20,76H22V78H20zM24,76H26V78H24zM26,76H28V78H26zM28,76H30V78H28zM30,76H32V78H30zM38,76H40V78H38zM42,76H44V78H42zM44,76H46V78H44zM46,76H48V78H46zM50,76H52V78H50zM52,76H54V78H52zM54,76H56V78H54zM58,76H60V78H58zM62,76H64V78H62zM68,76H70V78H68zM70,76H72V78H70zM72,76H74V78H72zM76,76H78V78H76zM80,76H82V78H80zM84,76H86V78H84zM86,76H88V78H86zM88,76H90V78H88zM8,78H10V80H8zM20,78H22V80H20zM24,78H26V80H24zM26,78H28V80H26zM30,78H32V80H30zM32,78H34V80H32zM36,78H38V80H36zM44,78H46V80H44zM46,78H48V80H46zM50,78H52V80H50zM56,78H58V80H56zM60,78H62V80H60zM62,78H64V80H62zM66,78H68V80H66zM70,78H72V80H70zM72,78H74V80H72zM80,78H82V80H80zM86,78H88V80H86zM8,80H10V82H8zM12,80H14V82H12zM14,80H16V82H14zM16,80H18V82H16zM20,80H22V82H20zM24,80H26V82H24zM26,80H28V82H26zM32,80H34V82H32zM34,80H36V82H34zM36,80H38V82H36zM42,80H44V82H42zM48,80H50V82H48zM54,80H56V82H54zM56,80H58V82H56zM58,80H60V82H58zM62,80H64V82H62zM66,80H68V82H66zM70,80H72V82H70zM72,80H74V82H72zM74,80H76V82H74zM76,80H78V82H76zM78,80H80V82H78zM80,80H82V82H80zM8,82H10V84H8zM12,82H14V84H12zM14,82H16V84H14zM16,82H18V84H16zM20,82H22V84H20zM32,82H34V84H32zM36,82H38V84H36zM38,82H40V84H38zM42,82H44V84H42zM46,82H48V84H46zM62,82H64V84H62zM68,82H70V84H68zM72,82H74V84H72zM78,82H80V84H78zM86,82H88V84H86zM88,82H90V84H88zM8,84H10V86H8zM12,84H14V86H12zM14,84H16V86H14zM16,84H18V86H16zM20,84H22V86H20zM26,84H28V86H26zM38,84H40V86H38zM44,84H46V86H44zM48,84H50V86H48zM50,84H52V86H50zM56,84H58V86H56zM58,84H60V86H58zM62,84H64V86H62zM64,84H66V86H64zM66,84H68V86H66zM68,84H70V86H68zM70,84H72V86H70zM72,84H74V86H72zM74,84H76V86H74zM82,84H84V86H82zM86,84H88V86H86zM88,84H90V86H88zM8,86H10V88H8zM20,86H22V88H20zM28,86H30V88H28zM32,86H34V88H32zM34,86H36V88H34zM38,86H40V88H38zM40,86H42V88H40zM44,86H46V88H44zM46,86H48V88H46zM48,86H50V88H48zM50,86H52V88H50zM56,86H58V88H56zM58,86H60V88H58zM60,86H62V88H60zM64,86H66V88H64zM66,86H68V88H66zM72,86H74V88H72zM78,86H80V88H78zM82,86H84V88H82zM86,86H88V88H86zM88,86H90V88H88zM8,88H10V90H8zM10,88H12V90H10zM12,88H14V90H12zM14,88H16V90H14zM16,88H18V90H16zM18,88H20V90H18zM20,88H22V90H20zM26,88H28V90H26zM32,88H34V90H32zM40,88H42V90H40zM42,88H44V90H42zM44,88H46V90H44zM48,88H50V90H48zM50,88H52V90H50zM52,88H54V90H52zM54,88H56V90H54zM66,88H68V90H66zM72,88H74V90H72zM74,88H76V90H74zM78,88H80V90H78zM80,88H82V90H80zM82,88H84V90H82zM86,88H88V90H86z" id="qr-path" fill="#000000" fill-opacity="1" fill-rule="nonzero" stroke="none"/></svg>